<?xml version="1.0" encoding="utf-8"?>
<!-- Generator: Adobe Illustrator 19.0.0, SVG Export Plug-In . SVG Version: 6.00 Build 0)  -->
<svg version="1.1" id="圖層_1" xmlns="http://www.w3.org/2000/svg" xmlns:xlink="http://www.w3.org/1999/xlink" x="0px" y="0px"
	 viewBox="0 0 595.3 841.9" style="enable-background:new 0 0 595.3 841.9;" xml:space="preserve">
<style type="text/css">
	.st0{display:none;opacity:0.15;}
	.st1{fill:none;stroke:#000000;stroke-miterlimit:10;}
</style>
<path class="st0" d="M164.5,313.9c-4.8-6.9-9.7-13.2-13.7-20c-6.5-11.2-8.7-23.4-5.6-36.1c5.1-21,25.3-29.1,43.6-17.5
	c9.2,5.9,14.7,14.8,19.3,24.4c1.2,2.5,2.2,5.2,3.6,8.4c1.5-1.3,2.8-2.3,4.1-3.5c15.6-13.3,30.8-27,46.8-39.8
	c15-12,31.2-22.2,50.3-26.8c2.4-0.6,4.9-1,7.3-1.4c0.4-0.1,0.9,0.1,1.5,0.1c-41.7,36.8-72.9,82.5-109,125.5c2.1-0.2,3.1-0.2,4.1-0.5
	c22.7-8,43-19.6,59-38.3c14.5-16.9,29.9-33.1,45.3-49.2c4.2-4.4,9.7-7.6,14.8-11c2.5-1.6,5.4-3.1,8.2-3.4c2.7-0.3,6.4,0.2,8,1.9
	c1.6,1.7,2.3,5.9,1.3,8.1c-2.2,4.7-4.9,9.8-8.9,13c-12,9.5-24,19.2-37.1,26.9c-13.9,8.1-26.3,17.4-36.3,29.9
	c-6.2,7.7-12.7,15-19,22.6c-1.1,1.4-2,2.9-3.9,5.5c3.4,0,6,0.7,7.7-0.1c8.9-4.3,17.7-9,26.4-13.8c0.9-0.5,1.5-2.1,1.6-3.2
	c0.7-8.1,5.7-13.3,11.6-17.8c1.4-1.1,4-0.7,6-1.1c0.1,2.1,0.8,4.4,0.1,6.1c-1.3,3.2-3.4,6.1-5.5,8.8c-2,2.6-4.5,4.8-7.6,8.2
	c6.7,0,11.5-2.1,15.3-5.9c8-7.9,17-13.8,28.1-16.3c0.6-0.1,1.3-0.3,2-0.4c4.8-0.5,9.8-0.8,12.6,3.9c2.6,4.3,0.1,8.3-2.1,12.1
	c-0.9,1.6-2,3-2.5,5.7c4.3-1.6,9-2.5,12.9-4.9c5.9-3.6,11.9-7.6,16.7-12.6c5.1-5.2,10.7-4.7,17.4-4.2
	c-10.3,11.9-20.3,23.4-30.2,34.9c0.3,0.6,0.7,1.2,1,1.8c2.5-0.6,5.5-0.6,7.6-1.9c5.9-3.7,11.8-7.5,17.1-12
	c5.9-5.1,11.9-10.4,16.5-16.6c4.9-6.6,10.8-7.1,18.4-6c-10.3,12.1-20.4,23.9-30.5,35.7c0.3,0.6,0.6,1.1,0.9,1.7c2-0.1,4,0.1,5.9-0.4
	c10.3-2.8,18.2-9.4,25.9-16.4c1.7-1.5,3.3-3.2,5.1-4.6c11.5-9,23-18,34.5-26.9c-0.3-0.5-0.5-1-0.8-1.5c-1.6-0.5-3.2-0.9-4.7-1.4
	c0.1-0.5,0.2-0.8,0.2-0.8c9.8,0.1,14.1-7.6,19-13.8c4.3-5.4,9.1-7.1,16.1-5.3c-5.2,5.9-10.2,11.5-15.8,17.8c4.5,0.3,8.3,0.5,12,0.8
	c0,0.6,0,1.2,0,1.8c-3.5,0.2-7,0.1-10.4,0.5c-1.8,0.2-4.2,0.6-5.3,1.8c-12.9,14.4-25.6,29-38.3,43.5c-0.7,0.8-1.2,1.9-2.6,4.2
	c15.1-0.6,24.4-10.4,35.9-16.7c-0.8,1.4-1.3,3.3-2.5,4c-10.1,5.3-20.1,10.9-30.6,15.3c-5.6,2.4-9.7-1.9-7.9-7.9
	c1.4-4.5,4.2-8.6,6.9-12.4c1.9-2.6,4.7-4.6,7.1-6.8c-0.3-0.4-0.6-0.7-0.9-1.1c-5.2,3.7-10.7,7-15.6,11.1c-8.5,7-16.9,14.2-27.9,16.9
	c-1.8,0.4-3.6,0.7-5.4,0.7c-5.1,0-7.3-2.8-6.1-7.8c0.5-2.1,1.3-4.1,2.3-6.8c-4.3,2.9-8,5.7-11.9,7.9c-3.9,2.2-7.9,4.5-12.1,5.8
	c-2.5,0.8-7.3,0.6-8-0.8c-1.3-2.4-1.1-6.4,0-9.1c1.8-4.2,4.8-7.8,6.6-10.5c-6.8,1.8-14.5,3.8-22.1,6c-1.5,0.4-2.7,1.9-4.1,2.8
	c-6,3.8-11.7,8.5-18.2,11.1c-12.5,5-19.1-0.8-17-13.6c-4.1-0.5-8.2-1.2-12.3-1.3c-1.2,0-2.6,1.3-3.7,2.1
	c-8.3,6.3-17.3,11.3-27.5,13.6c-1.5,0.3-3,0.5-4.4,0.6c-7.7,0.2-11-4.7-7.7-11.7c1-2.1,2.4-4,3.8-5.8c1.3-1.7,2.8-3.2,3.6-5.6
	c-2.3,1.4-4.7,2.7-7,4.2c-9.5,6.1-19.6,10.5-30.9,12.2c-1.2,0.2-3,0.9-3.3,1.7c-2,6.2-6.9,5.2-11.5,5.1c-1.3,0-2.5-0.1-4.3-0.2
	c1.4-2.5,2.5-4.7,4-7.4c-11-2.2-20.3-7-28.9-13.4c-0.9-0.7-3.4,0-4.7,0.9c-12.9,8.4-26.4,15.5-41.7,18.7c-11.5,2.4-22.8,2.7-33.6-3
	c-8-4.2-10.9-10.2-9-18c1.2-4.8,4.8-7.4,9.1-6.4c4.6,1.1,4.6,4.8,4.1,8.4c-0.6,4.2-3.3,5.8-8.5,5.2c-0.3,0-0.6,0-1.2,0
	c0.6,4.9,3.9,7.5,7.8,9.4c9.9,4.9,20.3,4.6,30.8,2.4C136.3,330.8,152.5,323.1,164.5,313.9z M167.5,311.8
	c13.5-11.7,26.6-23,39.5-34.4c1.1-1,2.2-3.3,1.9-4.5c-2.7-9.3-6.6-18.1-14-24.8c-15.3-13.9-38.7-9.1-45,9.6
	c-1.9,5.6-2.4,12.1-1.8,18.1C149.4,290,157.5,300.9,167.5,311.8z M211.6,310.7c33.3-35.4,61.7-75,101-106c-2.8,0.9-4.6,1.2-6.1,2
	c-11.4,6.2-23.6,11.3-33.8,19.1c-20.1,15.3-39.1,32.2-58.4,48.5c-0.9,0.8-1.8,2.6-1.6,3.7C214.5,289,214.5,299.9,211.6,310.7z
	 M169.8,313.1c8.5,7,17.9,11.4,28.1,13.8c0.9,0.2,2.4-0.4,2.9-1.1c9.3-14.4,12.3-30,9.3-47.5C196.5,290.1,183.3,301.5,169.8,313.1z
	 M291.9,279.8c0.4,0.5,0.8,1,1.3,1.5c5.7-3.6,11.5-7.1,17-10.9c9.9-7,20-13.8,29.3-21.5c4.6-3.8,8-9.2,11.3-14.3
	c1-1.6,0.5-5.2-0.7-6.8c-1-1.2-4.7-1.6-6.3-0.7c-5.7,3.2-12,6.3-16.4,11C315.2,251.5,303.7,265.8,291.9,279.8z M338.9,299.2
	c-1.1,0.3-3,0.5-4.6,1.4c-11.4,6.2-21.1,14.4-28.4,25.3c-1.4,2-1,5.2-1.4,7.9c2.6,0.2,5.6,1.3,7.9,0.5c12.5-4.2,22.4-12.2,30-22.8
	c1.3-1.8,2-4.2,2.3-6.5C345.3,301.4,343.2,299.4,338.9,299.2z"/>
<path class="st1" d="M5,114.4c0,0,2.5,9.7,8.2-0.2c0,0-3.2-13.2-13.2-2c0,0-0.3,30.5,54,19.8c0,0,99.6-72.5,132.8-108.1
	c0,0,25.8-21.4,53.5-25c0,0-121.9,118.1-122.1,135.7c0,0,44.5-78.1-28.4-102.2c0,0-36.2,10-22,53c0,0,24.1,49.4,69,38.7
	c0,0,60-15.8,134.1-92.3c0,0,3.1-40.5-77.9,56.5c0,0-77.8,78.2,15.6,29.1c0,0,32.8-19.6,13-23.2c0,0-41.9,25.7-2.6,25.4
	c0,0-5,33.1,42.9-3.1c0,0,13.9-48.7-38.1-5c0,0,17,25.4,75-14.9c0,0-51.8,54.9-4.9,31.3l35.3-32.8c0,0-51,53.1-8.4,36.9
	c0,0,74.1-46.9,83-71.3c0,0-121.7,116.8-19.9,58.2"/>
<line class="st1" x1="375.9" y1="80.5" x2="407.3" y2="81.7"/>
</svg>
