<?xml version="1.0" encoding="utf-8"?>
<!-- Generator: Adobe Illustrator 19.0.0, SVG Export Plug-In . SVG Version: 6.00 Build 0)  -->
<svg version="1.1" id="圖層_1" xmlns="http://www.w3.org/2000/svg" xmlns:xlink="http://www.w3.org/1999/xlink" x="0px" y="0px"
	 viewBox="0 0 595.3 841.9" style="enable-background:new 0 0 595.3 841.9;" xml:space="preserve">
<path d="M422.7,251.3c-1.3,0.7-2.5,1.5-3.8,2c-13.2,4.5-16.8,2.2-17.7-11.6c-5.6,2.9-11.2,5.9-16.8,8.7c-2.7,1.3-5.4,3-8.2,3.5
	c-3.2,0.6-7.5,1.2-9.7-0.4c-3.5-2.6-2-7.1-0.2-10.5c1.8-3.4,4.2-6.5,6.7-10.3c-4.2,2.1-7.7,4.3-11.6,5.7c-3,1.1-6.7,2.3-9.6,1.5
	c-3.3-0.8-5.1,0.1-7.5,1.7c-6.3,4.2-12.7,8.6-19.5,12c-6.4,3.2-12.2,2.2-14.8-1.1c-2.7-3.4-2.1-9.2,2.2-14.8
	c4.1-5.4,8.9-10.4,13.3-15.5c1.3-1.4,2.4-3,3.6-4.4c-0.3-0.4-0.5-0.9-0.8-1.3c-1.8,0.7-4,0.9-5.3,2.1c-6.3,6.1-12.3,12.4-18.4,18.7
	c-0.1,0.1-0.1,0.3-0.3,0.4c-10.4,8.3-21.9,14.5-34.9,17.5c-3.2,0.7-5.7-1.6-5.7-4.8c0-2.9,0.4-6.2,1.9-8.5
	c2.9-4.6,6.5-8.8,10.2-12.9c2.7-3.1,6-5.7,9-8.5c-0.4-0.6-0.9-1.3-1.3-1.9c-2.3,1.3-5.1,2-6.9,3.8c-12.2,12.6-27,21.6-42.4,29.5
	c-4.1,2.1-9.2,3.1-13.8,3.1c-7.4,0-11-5.3-9.4-12.6c0.5-2.1,1.1-4.3,2.3-6c7-11,16.6-18.5,29.4-21.7c3.4-0.8,7.8-1.7,9.6,2.7
	c1.7,4.2-0.7,7.8-4.2,9.7c-6.2,3.5-12.9,6.1-19.1,9.6c-3.7,2.1-7.1,4.9-9.8,8c-1.3,1.5-1.5,5.1-0.5,6.8c0.7,1.2,4.1,1.5,6.2,1.3
	c2.6-0.3,5.3-1.1,7.6-2.3c16-8.1,30.4-18.5,42.9-31.3c-0.5-0.1-1-0.1-1.5-0.2c-0.1-2.9-0.7-6,0.1-8.7c0.3-1.1,4.7-2.4,5.4-1.7
	c1.7,1.8,2.4,4.5,3.8,7.6c1.6-0.3,4.3-0.9,7.1-1.4c4.9,5.9,4.8,6.4-0.4,12c-5.6,6.1-11.2,12.3-16.7,18.6c-1.2,1.4-2.1,3.2-3.1,4.8
	c0.2,0.4,0.5,0.8,0.7,1.3c2.8-0.6,5.8-0.6,8.3-1.8c9.5-4.3,18.4-9.1,25.5-17.6c5.7-6.7,13.6-11.7,21-16.6c5.1-3.4,9.9,0.1,8.9,6.3
	c-0.6,3.4-2.4,7-4.5,9.8c-4.2,5.4-9.1,10.2-13.6,15.3c-1.2,1.4-2.1,3.2-4,6.1c3.4,0,5.5,0.4,7.4-0.1c10.1-2.4,17.6-9,25.1-15.7
	c0.6-0.5,0.8-1.7,0.9-2.7c0.8-8.3,5.7-14.1,11.9-18.8c1.4-1,3.7-0.8,5.6-1.1c0.2,2,1.2,4.5,0.3,5.9c-3.6,5.7-7.7,11.1-12.3,17.6
	c2.7-0.5,5.5-0.3,7.5-1.5c8.8-5.3,17.7-10.5,25.8-16.9c5-3.9,9.7-5.2,16.1-4.2c-10.1,11.7-20,23.2-29.9,34.7
	c0.3,0.5,0.5,1.1,0.8,1.6c1.8-0.1,3.7,0.2,5.3-0.5c11.4-4.6,21.6-11.1,30.2-19.7c7.3-7.3,15.2-13.6,25.5-15.8c2.7-0.6,5.9-1,8.3-0.1
	c2.2,0.8,5.4,3.8,5.2,5.3c-0.4,2.6-2.9,5.2-5.2,6.9c-0.8,0.6-3.6-1.5-5.4-2.4c1.2-1.7,2.2-3.6,3.6-5c0.6-0.6,2.1-0.3,3.2-0.4
	c0-0.6,0.1-1.1,0.1-1.7c-2.3-0.1-5-1.1-6.9-0.3c-12.9,5.9-22.4,15.4-28.1,28.4c-2.1,4.7-0.1,7,5.1,6.7
	C415.9,252.9,419.3,251.9,422.7,251.3L422.7,251.3z M229.2,230.7c0.6,0.8,1.1,1.5,1.7,2.3c5.7-3.5,11.6-6.8,17.1-10.6
	c1.1-0.8,0.9-3.4,1.4-5.2c-1.7,0-3.9-0.6-5,0.2C239.1,221.6,234.2,226.2,229.2,230.7z"/>
<path d="M225.1,114.5c-7.6,0.6-15.1,1.2-22.7,1.8c-16.6,1.3-31.5,6.9-44.3,17.5c-6.8,5.6-11.9,12.5-13.8,21.4
	c-2.3,10.7,1,18.6,10.6,24c11.3,6.3,23.6,8.1,36.3,6.7c8.1-0.8,16.2-2.2,24.1-4c2.4-0.5,5-2.6,6.4-4.7c13.2-20.4,29.3-38,49.9-51.1
	c8.2-5.2,16.6-10,26.8-9.8c11.3,0.2,15.7,6.6,9.9,16.3c-4.1,6.9-10.1,13.3-16.5,18.3c-16.2,12.6-34.5,21.9-54,28.6
	c-2.3,0.8-4.5,2.7-5.9,4.6c-7.8,11.2-14.2,23.5-23,33.7c-20.7,24.1-46.7,38.5-79.4,37.2c-7.7-0.3-15.8-2.7-22.9-5.9
	c-7.7-3.5-9.4-12.9-4.4-19.6c1.4-1.9,4.2-3.8,6.4-3.9c2.1-0.1,5.1,1.8,6.2,3.7c0.9,1.4,0.3,5-1,6.2c-1.5,1.3-4.5,1.3-6.8,1.4
	c-0.9,0-1.9-1-3-1.6c-0.8,7.8,1.8,12.1,9.7,14.9c14.3,5.1,28.5,3.9,42.5-1.4c10.6-4,20.2-10.1,27.3-18.8
	c11.8-14.2,22.6-29.1,33.9-43.7c-0.4-0.5-0.7-0.9-1.1-1.4c-7.1,0.9-14.2,2-21.3,2.8c-12.9,1.4-25.6,0.6-37.7-4.8
	c-16.1-7.2-21.1-20.3-14-36.5c3.1-7.1,8.1-12.6,14.4-16.9c19.9-13.5,42.2-18.2,66-17.1c0.4,0,0.8,0.4,1.2,0.6
	C225,113.5,225.1,114,225.1,114.5z M236.3,177.2c1.9-0.4,3-0.6,4-1c17.4-5.9,33.9-14,48.1-25.7c6.8-5.6,12.8-12.6,17.9-19.8
	c5-7.1,1.4-12.5-7.5-12.4c-9.4,0.2-17.2,4.4-24.8,9.4C255.7,139.6,246.9,158.5,236.3,177.2z"/>
<path d="M422.7,251.3c7.2-4.4,14.4-8.8,21.4-13.3c1.9-1.2,3.6-2.9,5-4.7c7-8.5,15.3-15.3,26.1-18.2c1.9-0.5,3.9-0.8,5.9-0.7
	c4.7,0.2,7.3,3.8,4.8,7.8c-1.9,3.1-5,5.7-8.2,7.6c-5.2,3-11.1,4.6-16.2,7.7c-3.5,2.1-7,5.2-9.1,8.7c-2.8,4.7,0,8.4,5.2,6.9
	c6.6-1.9,13-4.9,19.1-8.2c5.5-2.9,10.4-6.8,15.5-10.3c0.3,0.3,0.6,0.6,0.9,0.9c-0.5,0.8-0.8,1.9-1.5,2.3c-8.5,5.2-17,10.5-25.7,15.3
	c-2.6,1.5-6,2.1-9.1,2.2c-8.7,0.4-11.9-3-12.4-12.3C437.3,245.7,430,248.5,422.7,251.3L422.7,251.3z M463.1,230.8
	c0.5,0.7,1,1.4,1.6,2.1c5.7-3.4,11.6-6.6,17.1-10.3c1.2-0.8,1.2-3.4,1.7-5.2c-1.8,0-4.2-0.8-5.3,0.1
	C472.9,221.7,468.1,226.3,463.1,230.8z"/>
<path d="M414.1,199.5c-1.4-2.4-3.7-4.8-3.7-7.2c0-1.6,3.3-4.5,5-4.4c1.8,0.1,5.1,3.1,5,4.6c-0.2,2.5-2.6,4.7-4.1,7.1
	C415.6,199.5,414.9,199.5,414.1,199.5z"/>
</svg>
